<?xml version="1.0" encoding="UTF-8"?>
<svg version="1.1" viewBox="0 0 2700 1149" xmlns="http://www.w3.org/2000/svg">
 <path transform="translate(-.32007 -.022654)" d="m304.5 1147.2c1.5896-1.5921 28.617-11.644 44.706-16.626 43.995-13.625 91.618-22.554 141.79-26.584 46.25-3.7153 43.827-3.3849 46.824-6.3842 2.3557-2.3578 2.6741-3.4542 2.6572-9.15-0.0254-8.5883-1.7312-10.214-16.665-15.88-36.835-13.975-63.491-39.144-78.774-74.381-5.0689-11.687-6.5147-18.747-4.995-24.391 3.449-12.808 13.107-16.091 36.027-12.245 17.344 2.9102 34.352 9.8818 53.344 21.866 6.0087 3.7917 9.1497 5.2522 9.6286 4.4771 0.391-0.63264 1.0174-6.162 1.392-12.288 1.64-26.82 3.6732-38.559 10.181-58.782 18.993-59.024 47.95-100.11 89.768-127.37 18.227-11.881 46.572-23.517 69.764-28.639 13.783-3.044 35.856-3.3111 43.086-0.52139 5.462 2.1075 8.6639 5.9996 9.3888 11.413 1.2272 9.1645 0.49515 8.5564 9.7192 8.0723 10.047-0.52733 16.085-3.1255 35.141-15.121 16.095-10.132 28.353-22.062 46.617-45.372l12.603-16.085 0.70787-8.724c1.6234-20.008 9.4846-32.733 24.086-38.99 2.2-0.9427 7.6-2.7263 12-3.9635 10.209-2.8707 17.488-6.588 23.242-11.87 5.1832-4.7584 9.2385-12.522 9.2391-17.687 7.6e-4 -6.9741-11.65-22.371-21.91-28.955-10.993-7.0542-26.065-10.026-42.042-8.2896-15.122 1.6435-27.438 7.8412-39.23 19.742-8.0408 8.1144-10.857 12.571-12.478 19.748-2.0098 8.8985-7.0172 24.127-10.351 31.479-10.298 22.712-29.466 41.644-52.043 51.403-10.451 4.5175-17.351 5.8725-29.903 5.8725-14.717 0-50.481 6.4041-68.025 12.181-9.8946 3.2581-24.24 11.469-48.836 27.952-15.915 10.665-22.682 14.682-23.538 13.971-1.7217-1.4289-1.382-507.12 0.34799-518.1 4.5767-29.047 15.27-52.617 32.048-70.643 11.554-12.413 23.007-20.616 40.442-28.966 20.664-9.8968 37.44-14.135 59.537-15.041 12.12-0.49703 16.524-0.24757 26.829 1.5198 32.524 5.5778 61.723 21.102 90.306 48.014 36.244 34.124 56.104 77.033 61.185 132.19 1.675 18.185 3.2059 22.564 10.367 29.659 2.6472 2.6224 9.1748 7.8446 14.506 11.605 46.395 32.725 76.08 73.37 85.866 117.57 3.65 16.485 4.3948 33.273 2.4442 55.089-0.9998 11.182-1.9548 33.648-2.2388 52.667-0.4686 31.374-0.1029 41.116 2.7427 73.083 1.1075 12.44 0.1688 27.645-2.5059 40.591-10.007 48.436-45.577 91.862-95.678 116.81-6.778 3.3752-13.776 7.2119-15.551 8.5259-4.2736 3.1632-7.294 8.6199-11.802 21.321-17.982 50.67-56.047 86.599-103.47 97.666-14.255 3.3265-36.323 4.1691-50.858 1.9418-23.884-3.66-44.014-11.796-67.255-27.182-10.97-7.2628-14.163-8.4189-17.83-6.4565-2.5188 1.348-13.726 16.735-20.053 27.531-9.05 15.443-14.561 29.162-18.679 46.5-1.9741 8.3107-3.6252 104.35-1.8895 109.9 1.7752 5.6797 5.121 7.3316 16.787 8.2885 66.491 5.4537 89.394 8.6541 131.78 18.414 22.887 5.2705 81 25.08 81 27.611 0 0.8641-9e-3 0.8611-17-5.7496-54.587-21.238-118.29-33.98-190-38.001-14.485-0.8124-17.871-1.6796-21.548-5.5188l-2.9524-3.0832 0.0269-50.683c0.0258-48.655 0.11608-51.09 2.2564-60.871 5.0647-23.145 15.189-44.614 31.259-66.288 6.3142-8.5159 10.59-11.584 14.703-10.552 1.3916 0.34926 7.3056 3.8123 13.142 7.6956 20.23 13.46 42.807 22.862 63.038 26.252 12.38 2.0748 34.914 2.0597 47.148-0.0316 26.807-4.5824 50.915-17.365 71.44-37.88 18.671-18.661 28.932-35.805 39.895-66.651 3.997-11.247 7.5408-14.814 21.838-21.981 40.595-20.35 68.526-46.879 85.674-81.376 6.8244-13.729 10.233-23.535 13.141-37.806 3.1419-15.417 3.4458-26.642 1.3186-48.694-2.5252-26.179-2.5655-83.105-0.077-109.49 2.5717-27.267 2.0985-42.76-1.8637-61.015-9.4771-43.664-35.136-79.497-82.016-114.54-9.392-7.0197-18.351-14.271-19.91-16.114-5.3669-6.3466-7.5035-12.712-8.5655-25.517-4.594-55.392-22.162-95.621-56.924-130.35-26.76-26.733-56.779-44.015-88.025-50.674-12.099-2.5788-43.057-2.5689-54.815 0.0175-27.416 6.0309-53.155 19.023-70.481 35.576-18.468 17.645-28.955 37.145-35.541 66.095l-2.6166 11.5-0.28965 257.25c-0.15931 141.49-2e-3 257.25 0.34984 257.25 0.35172 0 4.5535-2.6582 9.3373-5.9072 24.492-16.634 32.171-21.605 41.198-26.672 5.4224-3.0434 9.864-6.0706 9.8702-6.7272 6e-3 -0.65653 1e-3 -38.401-0.0111-83.877-0.0255-94.412-0.87993-85.162 9.4868-102.71 7.9035-13.375 17.145-24.901 30.957-38.612 12.765-12.671 50.305-44.649 64.961-55.337 5.9535-4.3414 9.8564-8.0933 12.393-11.913 3.4586-5.209 3.7023-6.0781 3.7023-13.202 0-6.9473-0.31133-8.1398-3.5-13.406-3.8293-6.3243-9.809-10.969-16.441-12.77-8.7033-2.3637-24.848 1.2412-37.963 8.4768-13.358 7.3695-30.31 19.317-40.92 28.84-6.1468 5.5169-12.976 10.862-15.176 11.877-7.3385 3.3879-6.9577 6.5755-7.3306-61.351-0.35916-65.426 0.9699-114.54 3.4285-126.69 0.85067-4.2046 3.5148-11.655 6.0371-16.883 8.7288-18.093 25.459-31.262 47.365-37.283 6.1406-1.6877 26.191-1.6761 33 0.019 5.0012 1.245 16.671 6.1458 34 14.278 15.459 7.2546 28.937 20.281 43.097 41.653 8.9113 13.45 10.477 17.209 7.1534 17.17-0.9625-0.0111-8.5-1.368-16.75-3.0153-26.189-5.2295-44.515-5.0125-63 0.74603-17.698 5.5132-28.666 14.009-34.68 26.861-4.3467 9.2887-4.7087 14.056-1.4849 19.552 5.3554 9.1313 16.586 17.876 22.957 17.876 1.297 0 5.6994-1.1426 9.7832-2.539 15.125-5.172 28.401-6.9398 40.703-5.4203 39.63 4.8951 58.523 34.667 42.341 66.723-4.653 9.2174-11.45 17.445-22.013 26.644-5.4217 4.7217-11.561 11.058-13.643 14.081-3.7024 5.3757-3.7576 5.589-2.5245 9.7539 6.2491 21.108 12.914 29.029 24.561 29.189 4.193 0.0577 8.5222-1.4579 26.824-9.3911l21.824-9.4599 7.5306-10.54c4.1418-5.797 9.556-14.59 12.031-19.54 7.2458-14.489 10.747-16.766 18.653-12.133 8.9193 5.2271 29.794 31.752 37.093 47.133 3.7637 7.9312 11.449 32.76 14.084 45.5 5.1469 24.887 0.5408 30.046-17.917 20.068-13.383-7.2351-24.199-10.134-40.124-10.754-29.507-1.1484-49.778 5.3198-63.369 20.221l-5.3688 5.8863 0.6536 7.2127c0.85478 9.4329 3.0983 17.859 6.1348 23.042 5.0118 8.5538 18.018 12.001 40.449 10.72 7.425-0.42387 15.75-0.65306 18.5-0.50931 24.486 1.2799 43.759 16.277 53.218 41.412 4.911 13.049 6.4629 21.497 6.5588 35.701 0.16649 24.682-6.0026 45.124-19.549 64.777-6.2913 9.1278-19.709 21.92-26.989 25.732-7.1172 3.7263-10.081 2.7871-11.723-3.7145-2.436-9.648-6.373-21.562-8.5234-25.794-3.1087-6.118-10.452-15.167-12.01-14.799-0.69758 0.16465-6.7632 7.2258-13.479 15.691s-16.06 19.385-20.764 24.264l-8.553 8.8724 0.15879 12.736c0.0873 7.0046 0.43183 18.136 0.76555 24.736 0.69662 13.777-0.78096 28.604-3.7681 37.812-9.2441 28.494-39.066 49.688-69.915 49.688-14.57 0-32.112-4.3754-45.233-11.282-6.424-3.3814-8.1773-5.66-7.2373-9.4055 0.34523-1.3755 9.7634-11.912 20.929-23.414 21.954-22.615 29.271-31.871 36.774-46.516 5.4557-10.65 5.9602-14.436 2.795-20.974-3.0906-6.3844-6.8151-7.7793-21.968-8.2273-14.277-0.42215-24.521 1.0302-41.337 5.8607-49.819 14.311-88.291 43.231-115.68 86.958-14.943 23.858-31.295 65.276-35.488 89.885-0.80731 4.738-2.1475 17.096-2.9781 27.463-1.475 18.408-1.8413 20.652-3.3706 20.652-0.41 0-4.7709-2.5545-9.691-5.6766-20.978-13.312-41.092-20.948-61.035-23.17-15.358-1.7112-23.513 1.5674-26.514 10.659-3.1211 9.4571 5.2815 31.212 19.895 51.508 15.364 21.339 41.144 40.098 66.208 48.178 11.712 3.7755 14.085 6.5411 14.133 16.466 0.0558 11.658-3.4369 13.4-30.133 15.028-71.537 4.3619-136.2 17.149-189.5 37.473-16.087 6.1343-19.453 7.211-18.003 5.7584zm444.14-438.34c31.064-9.5886 54.653-34.489 65.729-69.384 7.3688-23.215 7.2854-35.933-0.39282-59.903-6.9271-21.625-9.5388-25.828-27.913-44.922-16.413-17.056-33.577-26.676-47.596-26.676-19.781 0-33.33 19.851-24.982 36.603 1.738 3.4877 6.3993 8.6851 15.443 17.219 19.159 18.079 25.285 29.219 25.374 46.143 0.0919 17.416-10.894 36.05-26.668 45.233-10.441 6.0784-18.948 14.937-21.197 22.072-1.5448 4.9008-1.6261 6.4154-0.58618 10.921 1.5303 6.6296 5.7217 13.173 12.614 19.691l5.4117 5.1182h8.9545c6.2918 0 10.993-0.62924 15.81-2.1161zm-7.7873-69.134c10.717-14.346 14.307-29.018 10.591-43.285-2.9316-11.255-7.5235-17.84-22.987-32.965-16.652-16.287-18.985-19.925-18.914-29.5 0.13272-17.958 16.062-30.045 35.475-26.919 16.782 2.7027 33.846 15.415 55.615 41.433l4.1385 4.9462 4.4971-4.1453c2.4734-2.2799 5.7861-4.8144 7.3615-5.6322 1.5754-0.81777 4.4279-3.5792 6.3389-6.1364 9.5074-12.723 24.857-19.785 49.135-22.608 21.878-2.5435 42.396 1.4309 59.84 11.591 7.8474 4.5709 11.354 5.1661 14.122 2.3976 2.0086-2.0086 2.1506-2.8737 1.6106-9.8152-0.32569-4.1868-2.1703-13.912-4.0991-21.612l-3.507-14-6.4366-6.1448c-17.367-16.58-42.626-24.157-68.14-20.441-5.6679 0.82557-35.021 12.696-50 20.221-7.7108 3.8734-14.015 4.5254-23.929 2.4751-13.141-2.7176-18.56-7.6477-18.567-16.892-5e-3 -6.2133 1.6269-9.9347 9.5737-21.834 4.7601-7.1276 9.3372-12.34 16.737-19.059 13.347-12.119 16.847-16.436 22.488-27.731l4.6973-9.4061v-11.094c0-10.085-0.25068-11.604-2.7572-16.708-5.4877-11.174-18.274-20.498-33.743-24.603-8.7068-2.3109-27.027-2.3357-36.5-0.0493-17.269 4.1679-25.113 8.1356-32.113 16.244-8.1593 9.4509-12.914 10.242-19.115 3.1792-5.8946-6.7135-6.5047-17.845-1.7625-32.156 1.2757-3.85 3.0744-9.6865 3.9971-12.97 2.4283-8.6415 5.0299-13.192 11.3-19.766 6.6194-6.9397 13.165-10.868 24.492-14.696 18.876-6.3807 38.411-7.2012 62.202-2.6128 19.981 3.8535 20.5 3.9244 20.5 2.7993 0-0.55387-4.0625-7.1387-9.0278-14.633-14.519-21.914-30.558-36.477-47.094-42.76-5.1374-1.952-5.6438-1.9639-17.711-0.41607-7.5848 0.97289-14.837 2.5594-18.623 4.074-3.4102 1.3643-6.5094 2.4805-6.8872 2.4805-2.2553 0-22.422 8.8502-29.156 12.796-9.8011 5.7417-21.085 16.28-26.878 25.101-6.5927 10.039-12.421 23.633-13.564 31.637-1.1121 7.788-0.32869 141.95 0.8582 146.96 0.39043 1.6492 1.4465 3.1403 2.3469 3.3137 0.9455 0.18209 5.7766-3.4457 11.437-8.5882 13.326-12.107 35.962-27.229 50.964-34.046 24.55-11.156 45.056-5.1609 51.928 15.182 4.2498 12.581-1.4001 23.721-18.022 35.534-13.188 9.3724-50.938 41.562-63.67 54.291-13.866 13.863-26.049 29.715-32.465 42.242-4.5379 8.86-4.637 9.2501-4.2097 16.574 0.48706 8.3482 2.3332 12.825 6.383 15.479 3.4393 2.2535 12.5 4.4396 18.593 4.4858 18.414 0.13954 33.981 10.377 42.629 28.036 3.922 8.0084 4.5684 10.545 6.7843 26.628 0.52065 3.7788 4.5289 8.3718 7.3059 8.3718 1.2665 0 3.4727-1.9508 5.9375-5.25zm139.64 364.35c-7.3841-1.8893-14.944-8.257-18.483-15.568-4.1111-8.4925-1.7222-20.105 5.9286-28.819 1.7645-2.0096 10.021-8.9286 18.347-15.376 46.594-36.077 77.192-66.367 101.36-100.34 63.024-88.586 96.383-174.82 103.43-267.35 1.468-19.284 0.6935-58.452-1.5355-77.653-8.8302-76.065-36.536-151.77-81.972-224-79.581-126.5-199.54-204.58-348.57-226.87-131.79-19.713-251.45 0.88942-352.5 60.691-61.296 36.276-117.33 88.569-165.21 154.18-27.178 37.243-52.145 86.44-66.228 130.5-23.623 73.906-29.099 153.27-16.007 232 18.034 108.44 72.593 210.03 150.87 280.91 14.866 13.462 23.223 20.246 44.079 35.783 17.558 13.08 23.074 18.552 26.712 26.5 2.0593 4.4981 2.4358 6.5348 1.9958 10.798-1.4241 13.798-13.089 24.509-26.691 24.509-10.568 0-15.639-2.686-38.522-20.401-57.822-44.764-108.57-103.35-145.93-168.46-40.292-70.224-66.42-155.61-69.966-228.64-0.70588-14.538 0.041776-10.717 2.3478 12 9.0352 89.009 38.294 171.19 87.588 246 37.239 56.519 83.192 105.54 135.2 144.24 14.498 10.787 20.666 13.662 29.259 13.639 7.8487-0.021 12.928-2.3426 18.415-8.4159 4.871-5.3916 6.5899-9.6294 6.5627-16.18-0.0479-11.527-4.6354-16.878-32.281-37.653-11.658-8.7614-27.776-21.798-35.817-28.971-117.12-104.48-177.53-265.69-159.3-425.16 9.9437-86.991 41.796-165.62 95.768-236.4 44.646-58.555 96.533-106.02 153.65-140.57 16.109-9.7424 52.753-27.97 69.5-34.571 85.162-33.567 183.22-43.373 284-28.402 159.85 23.747 284.34 108.64 365.04 248.95 18.374 31.945 39.182 78.443 49.45 110.5 24.726 77.196 29.252 154.81 13.444 230.56-13.559 64.972-40.402 126.59-82.968 190.44-32.292 48.442-58.79 75.997-115.35 119.95-8.4578 6.572-16.892 13.997-18.743 16.5-8.6545 11.703-7.662 24.129 2.673 33.466 11.139 10.064 21.243 8.8979 40.535-4.6768 43.482-30.595 80.633-67.847 119.29-119.61 36.934-49.46 66.137-103.66 83.846-155.63 15.217-44.652 22.496-80.687 26.828-132.82 1.1509-13.851 1.5104-7.5096 0.5127 9.0444-3.918 65.007-25.682 138.5-59.752 201.78-27.178 50.476-62.588 98.979-104.26 142.81-21.275 22.376-64.854 57.653-79.27 64.168-5.99 2.7068-12.866 3.7529-17.267 2.627zm-501.88-61.128c-28.809-3.299-52.495-11.768-71.809-25.674-9.2232-6.6408-22.313-19.914-29.265-29.676-7.3743-10.354-16.714-29.637-21.919-45.254-5.9785-17.939-7.546-19.874-21.475-26.523-21.19-10.115-35.916-19.965-50.277-33.632-26.213-24.945-42.019-53.481-50.039-90.335-1.9465-8.9449-2.2622-13.351-2.284-31.88-0.0286-24.267 1.4547-34.406 8.0889-55.288 4.6587-14.664 4.6703-18.873 0.0821-29.765-20.342-48.29-12.813-110.5 19.124-158.02 10.263-15.273 21.099-27.066 37.29-40.586 16.695-13.941 25.839-23.481 33.409-34.859 10.317-15.506 15.315-29.098 21.053-57.255 4.4877-22.022 8.7512-35.271 16.346-50.794 20.983-42.888 56.712-73.414 104.56-89.331 20.792-6.9166 30.337-8.4993 51.5-8.5393 20.338-0.0384 28.083 1.1042 44.5 6.5643 45 14.967 78.026 52.823 88.048 100.93 1.644 7.8913 1.755 20.396 1.6851 189.95-0.0517 125.41-0.41365 184.13-1.1714 190-0.60327 4.6758-0.80131 12.219-0.44018 16.766 0.59094 7.4408-1.0572 46.419-2.198 51.984-0.2537 1.2375-0.91996 2.25-1.4806 2.25s-5.0995-2.7435-10.086-6.0966-12.902-7.9368-17.589-10.186c-7.4051-3.5532-9.636-4.1478-17.017-4.5352-19.861-1.0424-34.858 7.1274-42.805 23.318-2.6374 5.3733-2.945 7.0004-2.945 15.578 0 9.2731 0.13673 9.8537 4.298 18.249 3.1237 6.3021 5.1126 9.0926 7.2794 10.213 3.6008 1.862 4.5024 1.4014 6.4687-3.3046 4.2758-10.233 12.893-15.637 24.978-15.664 9.4564-0.021 15.12 2.272 20.915 8.4673 5.1419 5.4971 7.5342 10.41 11.167 22.932 5.4746 18.872 6.9448 42.44 3.812 61.104-7.5492 44.973-42.134 93.414-81.72 114.46-10.129 5.3854-26.284 10.863-38.198 12.953-11.192 1.9629-31.447 2.6818-41.884 1.4866zm45.884-3.851c37.082-8.287 65.808-29.285 89.774-65.623 11.482-17.41 19.905-37.052 23.816-55.543 2.8781-13.605 3.1295-36.118 0.55238-49.457-2.1069-10.905-6.1399-24.564-8.858-30-4.5634-9.127-12.362-14.456-22.327-15.256-8.3228-0.66808-16.025 1.6624-20.791 6.2908-6.6537 6.462-6.9644 8.0144-7.1991 35.965-0.37087 44.167-5.6448 62.622-24.387 85.34-8.9067 10.796-26.419 21.797-41.081 25.806-9.8494 2.6933-33.794 2.4562-44.296-0.43857-20.841-5.7447-34.55-17.113-44.263-36.707-7.3358-14.799-8.762-21.845-8.8053-43.5-0.0257-12.833 0.48494-21.701 1.6669-28.95l1.704-10.45-10.525-10.55c-11.077-11.103-19.828-22.093-26.008-32.661-4.941-8.4488-5.7698-9.0669-9.2182-6.8756-7.867 4.999-10.094 8.9026-14.177 24.845-4.2562 16.62-6.691 20.641-12.499 20.641-4.2461 0-8.9556-3.4791-19.173-14.164-13.558-14.178-22.521-29.066-28.205-46.847-6.8788-21.52-6.6503-41.368 0.7211-62.629 8.2798-23.882 22.536-38.765 42.191-44.048 7.1962-1.9341 28.852-2.245 37.198-0.53397 6.1154 1.2537 19.527-0.17053 25.189-2.6749 6.1887-2.7375 11.153-8.2107 13.012-14.346 1.8172-5.9979 3.0938-21.212 2.1089-25.136-0.91436-3.6431-13.689-13.579-23.882-18.574-12.235-5.9963-19.036-7.4898-33.738-7.4088-17.21 0.0947-32.728 3.8333-55.845 13.454-5.1629 2.1488-9.9574 3.9068-10.654 3.9068-1.8975 0-2.4716-3.415-2.4867-14.792-0.0161-12.172 1.9229-22.472 6.1091-32.449 1.6749-3.9922 5.0402-12.41 7.4784-18.707 7.9493-20.528 15.759-32.495 30.009-45.984 13.451-12.732 15.83-12.438 25.357 3.1383 3.5931 5.8746 10.358 15.631 15.033 21.681l8.5 11 12.863 6.1083c29.6 14.056 36.541 15.91 45.204 12.078 6.6237-2.93 9.175-5.4832 12.564-12.573 3.4013-7.1163 3.9337-16.515 1.235-21.8-0.89889-1.7602-7.7953-9.2753-15.325-16.7-19.585-19.312-27.067-30.681-28.871-43.87-2.9532-21.594 11.37-39.15 39.831-48.817 6.8876-2.3396 8.4798-2.5042 19.5-2.0153 7.8808 0.3496 14.402 1.2481 18.997 2.6175 13.392 3.9908 29.658 2.1054 36.256-4.2024 3.5103-3.3561 6.6574-10.594 7.7372-17.795 0.63521-4.2359 0.37321-4.9553-4.4079-12.104-9.4951-14.196-21.764-23.11-37.082-26.939-9.2522-2.3131-39.45-1.7962-57.855 0.9903-9.9132 1.5008-15.699 1.9812-16.324 1.3554-1.2628-1.2628 5.3597-14.41 11.949-23.721 11.098-15.682 24.444-26.543 45.645-37.146 18.088-9.0456 27.054-11.55 41.585-11.618 34.575-0.16101 61.255 19.635 70.255 52.128 2.0677 7.4644 2.1237 9.6746 2.4995 98.54 0.21142 49.997 0.11947 91.96-0.20433 93.25s-1.1695 2.3457-1.8793 2.3457-8.9137-6.3207-18.231-14.046c-34.421-28.54-54.335-38.954-74.49-38.954-6.3837 0-7.0383 0.22695-12.72 4.4098-12.983 9.5578-17.199 20.295-12.169 30.995 2.5904 5.5108 12.413 14.829 26.216 24.869 15.548 11.31 30.554 24.517 53.61 47.184 28.809 28.323 35.698 37.467 39.642 52.622 1.3317 5.1167 1.5178 8.4501 0.91684 16.42-0.41472 5.5-0.79696 22.408-0.84944 37.574l-0.0954 27.574 3.0225 5.9264c3.8394 7.5283 9.6563 11.668 18.828 13.398 13.973 2.6364 24.002-1.7847 34.244-15.095l4.5384-5.8979 1.3409-13.239c1.0779-10.642 1.2913-48.45 1.0879-192.74-0.23118-164-0.39787-180.1-1.9304-186.5-4.6055-19.219-13.196-38.243-23.543-52.135-11.499-15.439-29.741-30.723-46.917-39.31-9.0378-4.5181-25.126-9.6318-36.098-11.473-13.498-2.2657-34.983-2.0757-49.724 0.4397-12.924 2.2053-32.936 8.5765-46.415 14.777-35.869 16.5-65.761 45.511-82.637 80.202-7.073 14.54-11.68 28.976-15.836 49.625-5.65 28.069-11.258 43.144-22.217 59.72-6.0272 9.117-19.452 23.094-31.744 33.051-34.988 28.339-55.861 62.41-65.216 106.45-2.4158 11.373-2.6875 14.719-2.6917 33.15-6e-3 25.965 2.3483 38.717 11.02 59.693 4.3086 10.422 4.2943 14.251-0.1061 28.286-6.9369 22.125-7.9177 28.901-7.9645 55.021-0.0376 21.005 0.20777 24.663 2.311 34.449 11.402 53.054 44.668 94.678 94.941 118.79 12.868 6.1721 18.282 10.071 20.832 15.002 0.83797 1.6205 3.5506 8.8662 6.0281 16.102 20.022 58.475 57.026 89.262 117.35 97.63 10.889 1.5107 39.191 0.45183 49.5-1.8521zm-27.386-156.13c17.743-3.3114 30.181-16.19 31.563-32.682 0.51706-6.1675 0.26976-7.6816-2.1269-13.022-1.4916-3.3237-4.3631-7.5954-6.381-9.4927-4.6192-4.3428-17.581-13.798-18.916-13.798-2.1913 0-18.891-7.2842-25.356-11.06-25.804-15.07-43.585-39.939-51.955-72.665-4.5962-17.971-15.964-31.697-33.445-40.381-8.8993-4.4211-16.106-5.852-29.497-5.8563-16.681-5e-3 -28.931 4.3384-39.375 13.963-5.626 5.1844-14.752 17.672-16.162 22.117-0.71891 2.2651 1.7826 6.3048 8.9983 14.531 6.3312 7.2182 12.415 10.919 23.646 14.385 11.128 3.4339 19.833 8.7474 25.338 15.466 4.9006 5.9806 10.787 18.933 13.635 30.001 6.6121 25.701 37.405 60.14 69.92 78.2 16.736 9.2956 35.172 13.083 50.114 10.295zm19.253-74.305c15.93-7.293 24.798-25.455 18.64-38.176-3.7297-7.7046-10.779-14.35-20.006-18.859-7.5859-3.7073-9.0652-4.9068-13.756-11.154-13.95-18.58-15.85-37.814-5.5758-56.466 2.6602-4.8296 7.5606-10.447 18.784-21.534 16.167-15.97 18.61-19.535 19.349-28.239 1.1397-13.424-12.026-26.261-26.933-26.261-11.007 0-25.996 6.4413-38.769 16.661-12.751 10.202-28.197 27.632-32.474 36.643-8.6315 18.189-12.103 34.776-11.416 54.547 0.39087 11.247 0.84065 13.831 4.0573 23.309 6.6105 19.479 13.724 31.641 26.03 44.502 11.123 11.625 23.311 19.707 39.174 25.98 7.5182 2.9726 15.003 2.6614 22.895-0.95176zm-8.0077-66.807c3.28-1.4945 5.2149-5.6127 7.643-16.267 2.7303-11.981 6.9475-19.652 15.458-28.118 11.97-11.907 23.569-16.262 45.806-17.198l13.766-0.57976 0.69877-2.6096c1.2945-4.8343 0.605-18.578-1.2129-24.176-4.9147-15.135-12.943-25.455-41.358-53.166-20.585-20.074-34.556-32.146-54.819-47.364-19.11-14.352-23.8-20.032-25.015-30.293-1.0078-8.5092 4.4029-17.212 16.033-25.79 5.1808-3.8208 6.4772-4.3217 11.185-4.3217 2.9285 0 8.3915 0.65002 12.14 1.4445 18.268 3.8718 32.256 11.791 57.732 32.685 19.729 16.181 23.262 18.858 23.963 18.157 0.34122-0.34121 0.62039-35.996 0.62039-79.232v-78.612l-3.4878-7.2778c-18.501-38.604-51.504-60.248-100.1-65.648-7.1669-0.79636-9.5647 0.0265-22.047 7.5664-10.385 6.2727-24.401 19.422-31.073 29.151-6.3099 9.2011-12.698 20.689-11.931 21.456 0.32316 0.32316 7.6874-0.4639 16.365-1.749 20.583-3.0483 47.355-3.3174 57.277-0.57579 18.396 5.0827 29.937 14.569 41.768 34.333 6.6287 11.073 7.535 14.314 7.6345 27.301 0.07 9.1295-0.22994 11.133-2.2977 15.348-2.4819 5.0593-6.9745 8.6421-10.845 8.6486-1.2676 2e-3 -4.5307-2.0576-7.5193-4.7463-6.4084-5.7652-24.004-14.416-34.986-17.202-18.427-4.6731-30.577-3.4675-46.696 4.6332-25.834 12.983-34.031 33.07-22.905 56.123 4.0769 8.4468 14.881 20.946 31.219 36.114 8.6953 8.0731 11.068 13.003 10.381 21.565-1.2573 15.663-12.047 26.926-25.649 26.773-6.6834-0.075-12.673-2.237-34.968-12.622-14.561-6.7822-17.37-7.7445-25.5-8.7331-16.927-2.0584-33.913 1.103-51.136 9.5173-17.897 8.7437-21.892 13.45-26.657 31.406-2.2708 8.5556-3.0338 30.384-1.1287 32.289 0.72988 0.72988 5.252-0.63004 14.917-4.4859 20.687-8.2531 31.153-10.758 47.51-11.368 10.713-0.4 15.328-0.13728 21.5 1.224 10.791 2.3798 22.884 8.366 32.366 16.021 4.3774 3.534 9.4292 7.1754 11.226 8.0918s5.3856 3.6321 7.9746 6.0347c2.5889 2.4026 5.5206 4.3684 6.5149 4.3684 1.0082 0 6.2144-4.719 11.771-10.669 12.477-13.362 21.985-20.956 33.374-26.657 14.606-7.3117 28.559-8.2824 37.714-2.6239 9.0632 5.6014 15.331 17.382 13.994 26.301-0.92776 6.1868-6.1174 14.452-12.965 20.649-16.33 14.778-22.32 21.612-26.714 30.479-3.9626 7.9969-4.3439 9.452-4.718 18.007-0.5403 12.354 2.6139 22.127 10.736 33.264 3.499 4.7983 3.1556 4.6314 6.4455 3.1324zm-408.04-83.882c0-3.575 0.18149-5.0375 0.40332-3.25s0.22183 4.7125 0 6.5-0.40332 0.325-0.40332-3.25zm0-28c0-3.575 0.18149-5.0375 0.40332-3.25s0.22183 4.7125 0 6.5-0.40332 0.325-0.40332-3.25zm1141-6c0-2.475 0.195-3.4875 0.4333-2.25 0.2384 1.2375 0.2384 3.2625 0 4.5-0.2383 1.2375-0.4333 0.225-0.4333-2.25zm-1.2724-9.5284c0-7.7258-2.9329-33.113-6.0617-52.472-9.2655-57.326-25.23-107.52-50.413-158.5-27.464-55.6-57.866-97.954-101.97-142.06-28.612-28.612-53.564-48.968-87.056-71.019-59.783-39.361-128.83-68.371-199.68-83.896-8.9754-1.9667-17.385-3.812-18.687-4.1007-4.8387-1.0725-1.3221-1.3038 5.406-0.35557 17.179 2.421 62.044 14.99 91.462 25.624 112.89 40.805 209.65 115.11 275.17 211.3 47.064 69.102 77.077 148.79 89.831 238.5 2.1616 15.205 3.8415 41.5 2.6513 41.5-0.3574 0-0.6498-2.0378-0.6498-4.5284zm-1138.3-12.972c1.9726-46.359 17.028-110.95 37.768-162.03 7.4142-18.261 24.286-52.35 34.622-69.955 60.399-102.87 158.84-190.76 265.43-237.01 30.375-13.177 76.88-28.308 94.874-30.867 7.2921-1.0373 2.8215 0.49871-13.024 4.4748-18.175 4.5606-48.116 14.333-66.349 21.655-93.838 37.684-179.17 103.89-243.91 189.23-59.227 78.077-96.252 171.19-106.57 268-2.6739 25.099-3.3906 29.251-2.848 16.5zm668.14-501.18c0.72187-0.28887 1.5844-0.25334 1.9167 0.078947 0.33229 0.33229-0.25834 0.56864-1.3125 0.52522-1.165-0.047984-1.4019-0.28494-0.60417-0.60417z" fill="#6cadbb"/>
 <path transform="translate(-.32007 -.022654)" d="m305.5 1147.8c1.65-0.5658 9.3012-3.4271 17.003-6.3584 53.453-20.345 117.98-33.102 189.5-37.463 26.696-1.6278 28.712-3.6158 28.656-15.274-0.0475-9.9251-8.7631-12.812-20.286-16.712-30.056-10.173-49.198-32.373-51.763-34.749-14.36-13.303-32.758-52.077-28.432-65.183 3.0004-9.0912 12.387-13.354 27.744-11.643 19.943 2.2222 40.303 9.6117 61.281 22.924 4.92 3.1221 8.7887 4.1998 9.1987 4.1998 1.5294 0 1.1572 0.70977 2.6322-17.698 0.83066-10.366 0.69394-22.725 1.5013-27.463 4.1933-24.61 19.561-67.504 34.504-91.362 27.387-43.727 69.304-72.647 119.12-86.958 16.816-4.8305 28.044-6.7752 42.321-6.353 15.153 0.44805 17.587 2.6486 21.968 8.2273 5.1343 6.5384 2.1683 12.786-3.2873 23.436-7.5025 14.645-14.82 23.901-36.774 46.516-11.166 11.502-20.584 22.038-20.929 23.414-0.94006 3.7455 0.81328 6.0241 7.2373 9.4055 13.121 6.9064 30.664 11.282 45.233 11.282 30.85 0 60.671-21.194 69.915-49.688 2.9872-9.2078 4.4648-24.035 3.7681-37.812-0.33372-6.6-0.67821-17.731-0.76555-24.736l-2.3741-14.089 9.0453-8.257c5.0059-4.5697 14.417-15.799 21.133-24.264s12.657-17.596 13.848-17.537c0.44696 0.022 9.8864 11.266 12.995 17.384 2.1504 4.2321 6.0873 16.146 8.5234 25.794 1.6416 6.5016 4.6058 7.4408 11.723 3.7145 7.2802-3.8117 20.697-16.604 26.989-25.732 13.546-19.653 19.715-40.095 19.549-64.777-0.0958-14.205-1.6477-22.652-6.5588-35.701-9.4594-25.135-28.732-40.132-53.218-41.412-2.75-0.14375-11.075 0.0854-18.5 0.50931-22.431 1.2805-35.438-2.1666-40.449-10.72-3.0364-5.1824-5.28-13.609-6.1348-23.042l-0.6536-7.2127 5.3688-5.8863c13.591-14.901 33.861-21.369 63.369-20.221 15.925 0.61981 26.741 3.5185 40.124 10.754 18.458 9.9785 23.064 4.8195 17.917-20.068-2.6348-12.74-10.32-37.569-14.084-45.5-7.2987-15.38-28.174-41.906-37.093-47.133-7.9064-4.6335-11.408-2.3562-18.653 12.133-2.4755 4.95-7.8896 13.743-12.031 19.54l-7.5306 10.54-21.824 9.4599c-18.302 7.9332-22.631 9.4488-26.824 9.3911-11.647-0.16034-18.312-8.0814-24.561-29.189-1.233-4.1649-1.1778-4.3782 2.5245-9.7539 2.0818-3.0227 8.221-9.3591 13.643-14.081 10.563-9.1989 17.36-17.426 22.013-26.644 16.182-32.056-2.7111-61.828-42.341-66.723-12.303-1.5196-25.578 0.24824-40.703 5.4203-4.0838 1.3965-8.4863 2.539-9.7832 2.539-6.3714 0-17.602-8.7445-22.957-17.876-3.2238-5.4968-2.8618-10.264 1.4849-19.552 6.0146-12.853 16.983-21.348 34.68-26.861 18.485-5.7585 36.811-5.9755 63-0.74603 17.845 3.5632 18.5 3.6043 18.5 1.1593 0-3.1618-17.343-28.26-25.575-37.01-12.046-12.805-16.551-15.67-43.925-27.937-14.531-6.5116-19.67-7.6792-33.5-7.6109-20.714 0.10221-36.556 6.7529-51.175 21.484-6.174 6.2214-8.5582 9.5645-12.19 17.092-2.5224 5.2284-5.1865 12.679-6.0371 16.883-2.4586 12.152-3.7876 61.264-3.4285 126.69 0.37289 67.927-8e-3 64.739 7.3306 61.351 2.2-1.0156 9.0292-6.3604 15.176-11.877 16.439-14.754 39.97-29.78 54.42-34.75 19.052-6.5527 32.841-3.1134 40.904 10.203 3.1887 5.2662 3.5 6.4587 3.5 13.406 0 7.1236-0.24372 7.9927-3.7023 13.202-2.5363 3.82-6.4392 7.5719-12.393 11.913-14.657 10.688-52.196 42.666-64.961 55.337-13.812 13.711-23.053 25.237-30.957 38.612-10.367 17.543-9.5123 8.2934-9.4868 102.71 0.0123 45.476 0.0173 83.22 0.0111 83.877-6e-3 0.65654-4.4478 3.6838-9.8702 6.7272-9.0274 5.0667-16.706 10.038-41.198 26.672-4.7838 3.249-8.9855 5.9072-9.3373 5.9072s-0.50915-115.76-0.34984-257.25l0.28965-257.25 2.6166-11.5c6.5867-28.949 17.073-48.45 35.541-66.095 17.326-16.554 43.065-29.545 70.481-35.576 11.758-2.5864 42.716-2.5964 54.815-0.0175 52.258 11.138 104.54 55.218 127.51 107.51 9.9068 22.553 14.991 43.986 17.44 73.515 1.062 12.806 3.1986 19.171 8.5655 25.517 1.5584 1.8429 10.518 9.094 19.91 16.114 46.88 35.039 72.539 70.871 82.016 114.54 3.9622 18.255 4.4354 33.748 1.8637 61.015-2.4882 26.38-2.4479 83.306 0.077 109.49 2.1272 22.052 1.8233 33.276-1.3186 48.694-2.9083 14.271-6.3169 24.077-13.141 37.806-17.148 34.497-45.079 61.027-85.674 81.376-14.298 7.1672-17.841 10.734-21.838 21.981-10.962 30.847-21.224 47.99-39.895 66.651-20.525 20.515-44.633 33.298-71.44 37.88-12.234 2.0913-34.767 2.1064-47.148 0.0316-20.231-3.3905-42.808-12.793-63.038-26.252-5.8367-3.8833-11.751-7.3463-13.142-7.6956-4.1137-1.0325-8.389 2.0357-14.703 10.552-16.07 21.674-24.718 43.143-29.782 66.288-2.1403 9.7807-3.7074 12.216-3.7332 60.871l-0.0269 50.683 2.9524 3.0832c3.6762 3.8392 7.0625 4.7064 21.548 5.5188 71.739 4.0232 135.7 16.821 190 38.019 7.425 2.8984 14.85 5.7392 16.5 6.3129 2.0966 0.729-77.704 1.0431-265 1.0431-184.94 0-267.07-0.3188-265-1.0288zm-55.766-145.85c-5.9538-1.4779-11.424-4.635-23.234-13.411-51.622-38.356-97.787-87.63-134.96-144.05-55.383-84.057-85.245-176.87-90.573-281.5-1.2913-25.359-0.61909-40.125 3.5736-78.5 10.607-97.082 47.459-189.6 106.55-267.5 64.741-85.346 150.07-151.55 243.91-189.23 17.798-7.1473 48.056-17.06 65-21.295 7.975-1.9931 16.428-4.2644 18.785-5.0475 3.6065-1.1983 22.053-1.4199 116.5-1.3998 73.103 0.015542 113.61 0.38025 116.22 1.0464 2.2 0.56238 10.944 2.562 19.432 4.4436 98.568 21.851 185.38 64.185 259.07 126.33 16.054 13.54 47.615 45.101 61.155 61.155 30.392 36.036 51.53 68.311 72.37 110.5 29.865 60.461 48.527 126.01 54.945 193 0.8432 8.8 1.9822 20.404 2.5313 25.786 1.2701 12.45 1.295 48.375 0.04 57.923-0.527 4.01-1.4498 12.916-2.0508 19.791-7.2271 82.676-37.87 166.67-88.836 243.5-25.906 39.054-64.769 85.42-92.618 110.5-24.429 22-53.81 44.017-62.963 47.181-9.8804 3.4157-17.013 2.0303-24.535-4.7654-10.335-9.337-11.327-21.763-2.673-33.466 1.8509-2.503 10.285-9.928 18.743-16.5 43.573-33.858 70.145-59.165 93.509-89.057 10.717-13.711 32.65-46.555 43.335-64.892 50.778-87.14 75.091-179.49 70.205-266.67-3.051-54.438-13.391-100.66-34.348-153.55-14.344-36.202-34.366-74.575-56.234-107.78-75.146-114.09-183.15-186.78-317.07-213.39-98.222-19.515-199.19-14.818-284.65 13.242-23.948 7.8637-37.732 13.538-62.355 25.668-51.535 25.389-92.466 55.011-135.46 98.031-26.433 26.452-53.145 58.824-73.196 88.705-60.392 90.001-87.817 200.81-77.271 312.2 11.874 125.43 69.452 241.15 160.3 322.2 8.041 7.1728 24.159 20.21 35.817 28.971 21.738 16.336 27.159 21.396 30.4 28.371 2.2241 4.7868 2.4595 13.231 0.49961 17.922-1.914 4.5808-8.1805 11.325-12.634 13.597-4.5384 2.3153-12.23 3.1817-17.229 1.9408zm125.27-60.985c-28.174-3.9087-50.568-12.472-69.128-26.435-21.865-16.449-37.251-39.167-48.218-71.196-2.4775-7.2354-5.1901-14.481-6.0281-16.102-2.5497-4.9306-7.9643-8.8299-20.832-15.002-50.273-24.114-83.539-65.738-94.941-118.79-2.1032-9.7866-2.3486-13.445-2.311-34.449 0.0468-26.12 1.0276-32.896 7.9645-55.021 4.4004-14.035 4.4148-17.863 0.1061-28.286-8.6721-20.977-11.026-33.729-11.02-59.693 4e-3 -18.431 0.27586-21.777 2.6917-33.15 9.3552-44.043 30.228-78.113 65.216-106.45 12.292-9.9562 25.717-23.934 31.744-33.051 10.958-16.576 16.567-31.652 22.217-59.72 1.9504-9.6891 5.1623-22.456 7.1377-28.372 12.809-38.355 38.58-70.604 73.336-91.771 28.079-17.1 60.144-26.484 90.489-26.484 28.867 0 51.575 6.6473 74.577 21.83 27.441 18.113 47.197 47.47 55.632 82.67 1.5326 6.3956 1.6992 22.5 1.9304 186.5 0.20339 144.29-0.01 182.1-1.0879 192.74l-1.3409 13.239-4.5384 5.8979c-10.242 13.31-20.272 17.731-34.244 15.095-9.1716-1.7306-14.988-5.8699-18.828-13.398l-3.0225-5.9264 0.0954-27.574c0.0525-15.165 0.43472-32.074 0.84944-37.574 0.60096-7.97 0.41484-11.303-0.91684-16.42-3.9442-15.155-10.833-24.299-39.642-52.622-23.055-22.667-38.061-35.874-53.61-47.184-13.803-10.04-23.625-19.358-26.216-24.869-5.0297-10.7-0.81415-21.438 12.169-30.995 5.6821-4.1829 6.3367-4.4098 12.72-4.4098 20.155 0 40.069 10.414 74.49 38.954 9.3172 7.7253 17.521 14.046 18.231 14.046s1.5555-1.0556 1.8793-2.3457 0.41575-43.253 0.20433-93.25c-0.37578-88.865-0.43184-91.076-2.4995-98.54-7.1429-25.786-25.608-43.77-51.755-50.405-10.853-2.7542-27.645-2.3695-38.585 0.88376-10.483 3.1174-31.875 13.677-41.551 20.51-8.9441 6.3164-19.155 16.549-25.594 25.647-6.5891 9.3108-13.212 22.458-11.949 23.721 0.62582 0.62582 6.4112 0.14548 16.324-1.3554 18.405-2.7865 48.603-3.3034 57.855-0.9903 15.318 3.8294 27.587 12.743 37.082 26.939 4.7811 7.1484 5.0431 7.8678 4.4079 12.104-1.0798 7.2006-4.2269 14.439-7.7372 17.795-6.5976 6.3078-22.864 8.1932-36.256 4.2024-4.5951-1.3694-11.116-2.2679-18.997-2.6175-11.02-0.48886-12.612-0.32431-19.5 2.0153-28.46 9.6675-42.784 27.223-39.831 48.817 1.8037 13.189 9.286 24.558 28.871 43.87 7.53 7.425 14.426 14.94 15.325 16.7 2.6988 5.2846 2.1663 14.683-1.235 21.8-3.3888 7.0902-5.9401 9.6435-12.564 12.573-8.6631 3.8321-15.604 1.9775-45.204-12.078l-12.863-6.1083-8.5-11c-4.675-6.0499-11.44-15.806-15.033-21.681-9.5268-15.576-11.906-15.871-25.357-3.1383-14.25 13.489-22.059 25.456-30.009 45.984-2.4382 6.2965-5.8035 14.714-7.4784 18.707-4.1862 9.9777-6.1252 20.277-6.1091 32.449 0.0151 11.377 0.5892 14.792 2.4867 14.792 0.6969 0 5.4913-1.7581 10.654-3.9068 23.117-9.6211 38.635-13.36 55.845-13.454 14.702-0.0809 21.503 1.4126 33.738 7.4088 10.193 4.9954 22.968 14.931 23.882 18.574 0.98481 3.9238-0.29169 19.138-2.1089 25.136-1.8588 6.135-6.823 11.608-13.012 14.346-5.6615 2.5043-19.073 3.9286-25.189 2.6749-8.3462-1.711-30.001-1.4002-37.198 0.53397-19.655 5.2826-33.911 20.166-42.191 44.048-7.3714 21.261-7.5999 41.11-0.7211 62.629 5.6838 17.781 14.647 32.669 28.205 46.847 10.217 10.685 14.927 14.164 19.173 14.164 5.8084 0 8.2432-4.0208 12.499-20.641 4.0825-15.942 6.31-19.846 14.177-24.845 3.4484-2.1913 4.2772-1.5731 9.2182 6.8756 6.1802 10.568 14.932 21.558 26.008 32.661l10.525 10.55-1.704 10.45c-1.182 7.2487-1.6926 16.116-1.6669 28.95 0.0433 21.655 1.4696 28.701 8.8053 43.5 9.7125 19.594 23.421 30.962 44.263 36.707 10.502 2.8948 34.446 3.1319 44.296 0.43857 28.241-7.7225 50.697-30.26 59.928-60.147 4.0873-13.233 5.3177-24.561 5.5397-50.999 0.2347-27.95 0.54545-29.503 7.1991-35.965 4.7657-4.6284 12.468-6.9589 20.791-6.2908 9.9652 0.79991 17.764 6.1284 22.327 15.256 2.7181 5.4363 6.751 19.095 8.858 30 2.5771 13.339 2.3257 35.852-0.55238 49.457-3.9118 18.491-12.334 38.133-23.816 55.543-23.966 36.338-52.691 57.336-89.774 65.623-10.309 2.3039-38.611 3.3628-49.5 1.8521zm18.471-231.33c-15.864-6.2722-28.051-14.355-39.174-25.98-12.306-12.861-19.42-25.023-26.03-44.502-3.2166-9.4784-3.6664-12.062-4.0573-23.309-0.68715-19.771 2.7841-36.358 11.416-54.547 4.2763-9.0115 19.722-26.441 32.474-36.643 12.773-10.22 27.761-16.661 38.769-16.661 14.907 0 28.073 12.837 26.933 26.261-0.73892 8.7033-3.1815 12.268-19.349 28.239-11.223 11.087-16.124 16.705-18.784 21.534-10.274 18.652-8.3745 37.886 5.5758 56.466 4.6906 6.2472 6.17 7.4467 13.756 11.154 9.2271 4.5093 16.277 11.155 20.006 18.859 7.936 16.394-8.8861 39.583-29.815 41.099-4.3525 0.31544-7.1097-0.14829-11.72-1.9713zm325-3.7597c-16.078-15.206-17.424-29.134-4.1013-42.415 3.373-3.3622 9.345-7.9833 13.271-10.269 15.774-9.1837 26.76-27.817 26.668-45.233-0.0893-16.924-6.2152-28.064-25.374-46.143-9.0439-8.5341-13.705-13.731-15.443-17.219-8.3478-16.752 5.2009-36.603 24.982-36.603 14.019 0 31.182 9.6196 47.596 26.676 18.374 19.094 20.986 23.297 27.913 44.922 5.8348 18.215 7.2761 32.734 4.4759 45.091-8.5691 37.812-27.162 64.066-55.456 78.305-11.591 5.8336-19.778 8.0067-30.165 8.0067h-8.9545z" fill="#1d3b54"/>
 <g stroke="#2f4a60">
  <text transform="scale(.89631 1.1157)" x="1481.6726" y="467.29944" fill="#000000" font-family="Sans" font-size="178.12px" opacity=".89362" stroke-width=".090838" style="font-variant-caps:normal;font-variant-east-asian:normal;font-variant-ligatures:normal;font-variant-numeric:normal" xml:space="preserve"><tspan x="1481.6726" y="467.29944" fill="#000000" font-family="Sans" font-size="178.12px" stroke-width=".090838" style="font-variant-caps:normal;font-variant-east-asian:normal;font-variant-ligatures:normal;font-variant-numeric:normal">CONDUCTALIA</tspan></text>
  <text transform="scale(.70912 1.4102)" x="2130.4863" y="519.51178" fill="#000000" font-family="Sans" font-size="83.209px" opacity=".89362" stroke-width=".042435" style="font-variant-caps:normal;font-variant-east-asian:normal;font-variant-ligatures:normal;font-variant-numeric:normal" xml:space="preserve"><tspan x="2130.4863" y="519.51178" fill="#000000" font-family="Sans" font-size="83.209px" stroke-width=".042435" style="font-variant-caps:normal;font-variant-east-asian:normal;font-variant-ligatures:normal;font-variant-numeric:normal">ATENCION PSICOLOGICA</tspan></text>
  <rect x="1675.4" y="574.72" width="490.83" height="9.3825" fill="#1d3b54" opacity=".89362" stroke-width=".6175"/>
 </g>
</svg>
